<svg width="34" height="34" viewBox="0 0 34 34" fill="none" xmlns="http://www.w3.org/2000/svg">
<path d="M10.7563 16.3211C8.86898 16.3209 7.05 17.0282 5.6588 18.3035V6.73922C5.6602 5.97454 5.96434 5.24174 6.50517 4.70111C7.04577 4.16051 7.7786 3.85611 8.54328 3.85474H27.1976C27.9622 3.85614 28.695 4.16051 29.2357 4.70111C29.7765 5.24171 30.0807 5.97454 30.082 6.73922V24.5496C30.0816 25.3145 29.7777 26.048 29.2368 26.5888C28.6959 27.1296 27.9624 27.4336 27.1976 27.4341H17.4637C18.7037 25.0846 18.6224 22.257 17.2495 19.9827C15.8766 17.7081 13.4128 16.3188 10.7559 16.3211L10.7563 16.3211ZM25.9815 7.32157H9.75473C9.32018 7.32157 8.96805 7.67393 8.96805 8.10824C8.96805 8.54279 9.32018 8.89492 9.75473 8.89492H25.9815C26.4159 8.89492 26.7682 8.54279 26.7682 8.10824C26.7682 7.67393 26.4159 7.32157 25.9815 7.32157ZM25.9815 12.2201H9.75473C9.32018 12.2201 8.96805 12.5722 8.96805 13.0067C8.96805 13.4413 9.32018 13.7934 9.75473 13.7934H25.9815C26.4159 13.7934 26.7682 13.4413 26.7682 13.0067C26.7682 12.5722 26.4159 12.2201 25.9815 12.2201ZM21.6129 23.5848H25.9867C26.4212 23.5848 26.7734 23.2324 26.7734 22.7981C26.7734 22.3635 26.4212 22.0114 25.9867 22.0114H21.6127C21.1783 22.0114 20.826 22.3635 20.826 22.7981C20.826 23.2324 21.1783 23.5848 21.6127 23.5848H21.6129ZM20.0501 18.6917H25.9867C26.4212 18.6917 26.7734 18.3393 26.7734 17.905C26.7734 17.4704 26.4212 17.1183 25.9867 17.1183H20.0499C19.6155 17.1183 19.2632 17.4704 19.2632 17.905C19.2632 18.3393 19.6155 18.6917 20.0499 18.6917H20.0501ZM10.7568 17.8944H10.7566C12.351 17.8951 13.8799 18.5289 15.007 19.6567C16.1341 20.7845 16.7672 22.3136 16.7669 23.9081C16.7667 25.5025 16.1331 27.0316 15.0058 28.1589C13.8784 29.2863 12.3494 29.9198 10.7549 29.9201C9.16046 29.9203 7.6314 29.2872 6.50356 28.1601C5.37578 27.033 4.74194 25.5042 4.74128 23.91C4.74175 22.3146 5.37578 20.7848 6.50356 19.657C7.63158 18.529 9.16142 17.895 10.7565 17.8945L10.7568 17.8944ZM9.97014 23.5323H9.96991C9.96921 23.5957 9.97623 23.6592 9.99098 23.721C9.97576 23.7828 9.9685 23.8462 9.96991 23.9099C9.97132 24.3438 10.3227 24.6952 10.7566 24.6966H13.8981C14.3327 24.6966 14.6848 24.3442 14.6848 23.9099C14.6848 23.4754 14.3327 23.1232 13.8981 23.1232H11.5433V20.1601C11.5433 19.7255 11.1911 19.3734 10.7566 19.3734C10.3223 19.3734 9.96991 19.7255 9.96991 20.1601L9.97014 23.5323Z" fill="#F18F5A"/>
</svg>
