<svg width="41" height="40" viewBox="0 0 41 40" fill="none" xmlns="http://www.w3.org/2000/svg">
<path d="M17.6402 3.3335C16.8419 3.3335 16.1595 3.89782 16.0061 4.68115L15.4495 7.53923C14.0816 8.0565 12.8167 8.77917 11.706 9.69092L8.96512 8.74691C8.21012 8.48691 7.37944 8.7991 6.97944 9.4891L4.46642 13.8446C4.06808 14.5362 4.21306 15.4143 4.81473 15.9377L7.01199 17.8485C6.89772 18.5507 6.82319 19.2656 6.82319 20.0002C6.82319 20.7347 6.89772 21.4496 7.01199 22.1519L4.81473 24.0627C4.21306 24.586 4.06808 25.4641 4.46642 26.1558L6.97944 30.5112C7.37777 31.2029 8.21012 31.515 8.96512 31.2567L11.706 30.3127C12.8163 31.2238 14.0822 31.9441 15.4495 32.4611L16.0061 35.3192C16.1595 36.1025 16.8419 36.6668 17.6402 36.6668H22.6728C23.4711 36.6668 24.1536 36.1025 24.3069 35.3192L24.8636 32.4611C26.2315 31.9438 27.4964 31.2212 28.607 30.3094L31.3479 31.2534C32.1029 31.5134 32.9336 31.2029 33.3336 30.5112L35.8466 26.1525C36.245 25.4608 36.1 24.586 35.4983 24.0627L33.3011 22.1519C33.4153 21.4496 33.4899 20.7347 33.4899 20.0002C33.4899 19.2656 33.4153 18.5507 33.3011 17.8485L35.4983 15.9377C36.1 15.4143 36.245 14.5362 35.8466 13.8446L33.3336 9.4891C32.9353 8.79743 32.1029 8.48532 31.3479 8.74365L28.607 9.68766C27.4967 8.77649 26.2309 8.05626 24.8636 7.53923L24.3069 4.68115C24.1536 3.89782 23.4711 3.3335 22.6728 3.3335H17.6402ZM20.1565 13.3335C23.8382 13.3335 26.8232 16.3185 26.8232 20.0002C26.8232 23.6818 23.8382 26.6668 20.1565 26.6668C16.4749 26.6668 13.4899 23.6818 13.4899 20.0002C13.4899 16.3185 16.4749 13.3335 20.1565 13.3335Z" fill="#272F3E"/>
</svg>
