<svg width="16" height="16" viewBox="0 0 16 16" fill="none" xmlns="http://www.w3.org/2000/svg">
<path opacity="0.1" fill-rule="evenodd" clip-rule="evenodd" d="M7.2354 0.0191545C5.36822 0.210967 3.66912 1.01651 2.34831 2.33616C-0.782771 5.46443 -0.782771 10.5394 2.34831 13.6677C3.61944 14.9377 5.16479 15.6968 7.01655 15.9608C7.38793 16.0137 8.61617 16.0129 9.00181 15.9594C10.8147 15.7081 12.4072 14.9236 13.6561 13.6668C15.1088 12.2049 15.9168 10.3446 15.9943 8.28373C16.0779 6.05891 15.2379 3.92351 13.6536 2.33346C12.4251 1.10055 10.8687 0.32206 9.11123 0.061456C8.72891 0.00475133 7.61919 -0.0202664 7.2354 0.0191545ZM8.45469 4.02828C9.92156 4.27608 10.5619 5.51253 9.8414 6.7058C9.66467 6.99847 9.42272 7.26461 9.0457 7.58108C8.8353 7.75767 8.64093 7.95074 8.579 8.04461C8.44597 8.24622 8.37653 8.51021 8.37647 8.81477C8.37641 9.2479 8.22384 9.39265 7.76857 9.39153C7.45346 9.39074 7.33275 9.33473 7.24925 9.15055C7.16543 8.96566 7.1653 8.41593 7.249 8.08823C7.37127 7.60941 7.55939 7.35135 8.11091 6.90594C8.64834 6.47194 8.77918 6.29165 8.80679 5.94729C8.84627 5.45454 8.43756 5.15402 7.77692 5.18999C7.35358 5.21307 7.16168 5.32435 6.89043 5.70412C6.66449 6.02046 6.41269 6.07635 6.09711 5.88019C5.69778 5.63195 5.75711 5.03907 6.22748 4.57729C6.72686 4.08705 7.57095 3.87899 8.45469 4.02828ZM8.10776 10.2091C8.38253 10.3418 8.56224 10.6183 8.56343 10.9102C8.56449 11.1697 8.50593 11.3174 8.33029 11.4983C8.00443 11.8339 7.5158 11.8363 7.1981 11.5037C6.79032 11.0769 6.95771 10.375 7.51677 10.1675C7.65055 10.1179 7.96457 10.14 8.10776 10.2091Z" fill="black"/>
</svg>
