<svg width="20" height="21" viewBox="0 0 20 21" fill="none" xmlns="http://www.w3.org/2000/svg">
<path d="M9.19231 2.00012C5.92308 2.00012 2 4.61551 2 9.19243V11.8078V12.4617C2 13.4533 2.43428 14.1594 2.87733 14.5471C3.14747 14.7834 3.26054 14.7872 3.44178 14.8587C3.67935 15.4726 5.19797 19.0001 9.19231 19.0001C9.21459 19.0001 9.23529 18.9978 9.25744 18.9976C9.25914 18.9976 9.26084 18.9976 9.26254 18.9976C10.7601 18.9804 11.9544 18.4306 12.8689 17.6924H9.19231C5.70513 17.6924 4.58218 14.2163 4.58218 14.2163L4.46852 13.8753L4.11989 13.7885C4.11989 13.7885 3.94886 13.7482 3.73806 13.5637C3.52726 13.3793 3.30769 13.1046 3.30769 12.4617V11.8078H3.96154C3.96154 7.23089 10.5 10.5001 12.4615 5.9232C12.4615 5.9232 14.4231 7.72781 14.4231 11.8078V13.7694H14.9582C14.6903 14.5324 13.9751 15.077 13.1154 15.077H10.44C10.3048 14.697 9.94546 14.4232 9.51923 14.4232H8.86538C8.324 14.4232 7.88461 14.8626 7.88461 15.404C7.88461 15.9454 8.324 16.3847 8.86538 16.3847H9.51923C9.57774 16.3847 9.63465 16.3767 9.69035 16.3669C9.74138 16.379 9.79369 16.385 9.84615 16.3847H13.1154C14.7444 16.3847 16.1013 15.1753 16.3425 13.611C16.7549 13.3911 17.0385 12.9619 17.0385 12.4617V11.8078C17.0385 11.3247 16.7741 10.9079 16.3846 10.6815V9.19243C16.3846 6.57704 15.0769 3.30781 12.4615 3.30781C12.4615 3.30781 11.8077 2.00012 9.19231 2.00012Z" fill="#A0A6B1"/>
</svg>
