<svg width="41" height="40" viewBox="0 0 41 40" fill="none" xmlns="http://www.w3.org/2000/svg">
<g clip-path="url(#clip0_399_2667)">
<path d="M6.83236 7C4.99069 7 3.49902 8.49167 3.49902 10.3333V30.3333C3.49902 32.175 4.99069 33.6667 6.83236 33.6667H10.1657V30.3333H6.83236V10.3333H33.499V30.3333H30.1657V33.6667H33.499C35.3407 33.6667 36.8324 32.175 36.8324 30.3333V10.3333C36.8324 8.49167 35.3407 7 33.499 7H6.83236ZM20.1657 17C16.484 17 13.499 19.985 13.499 23.6667V40.3333L20.1657 37L26.8324 40.3333V23.6667C26.8324 19.985 23.8474 17 20.1657 17ZM20.1657 20.3333C22.0074 20.3333 23.499 21.825 23.499 23.6667C23.499 25.5083 22.0074 27 20.1657 27C18.324 27 16.8324 25.5083 16.8324 23.6667C16.8324 21.825 18.324 20.3333 20.1657 20.3333ZM16.8324 29.4088C17.8163 29.9815 18.9452 30.3333 20.1657 30.3333C21.3861 30.3333 22.515 29.9815 23.499 29.4088V34.9394L20.1657 33.2728L16.8324 34.9394V29.4088Z" fill="#F18F5A"/>
</g>
<defs>
<clipPath id="clip0_399_2667">
<rect width="40" height="40" fill="white" transform="translate(0.65625)"/>
</clipPath>
</defs>
</svg>
