<svg width="30" height="30" viewBox="0 0 30 30" fill="none" xmlns="http://www.w3.org/2000/svg">
<path d="M8.75 1.25C8.06 1.25 7.5 1.81 7.5 2.5V3.75H6.25C4.875 3.75 3.75 4.875 3.75 6.25V23.75C3.75 25.125 4.875 26.25 6.25 26.25H23.75C25.125 26.25 26.25 25.125 26.25 23.75V6.25C26.25 4.875 25.125 3.75 23.75 3.75H22.5V2.5C22.5 1.81 21.94 1.25 21.25 1.25C20.56 1.25 20 1.81 20 2.5V3.75H10V2.5C10 1.81 9.44 1.25 8.75 1.25ZM6.25 10H23.75V22.5C23.75 23.19 23.19 23.75 22.5 23.75H7.5C6.81 23.75 6.25 23.19 6.25 22.5V10Z" fill="#4D85F0"/>
<path d="M11.0625 16.5625L13.6875 19.1875L18.9375 13.5625" stroke="#4D85F0" stroke-width="1.5" stroke-linecap="round" stroke-linejoin="round"/>
</svg>
