<svg width="41" height="40" viewBox="0 0 41 40" fill="none" xmlns="http://www.w3.org/2000/svg">
<path d="M20.6562 3.3335C11.4712 3.3335 3.9895 10.8152 3.9895 20.0002C3.9895 29.1852 11.4712 36.6668 20.6562 36.6668C29.8412 36.6668 37.3228 29.1852 37.3228 20.0002C37.3228 10.8152 29.8412 3.3335 20.6562 3.3335ZM20.6562 6.66683C28.0397 6.66683 33.9895 12.6166 33.9895 20.0002C33.9895 27.3837 28.0397 33.3335 20.6562 33.3335C13.2726 33.3335 7.32284 27.3837 7.32284 20.0002C7.32284 12.6166 13.2726 6.66683 20.6562 6.66683ZM18.9895 10.0002V20.6903L26.1445 27.8452L28.5012 25.4884L22.3228 19.3101V10.0002H18.9895Z" fill="#E52CE9"/>
</svg>
