<svg width="30" height="30" viewBox="0 0 30 30" fill="none" xmlns="http://www.w3.org/2000/svg">
<path d="M28 14.9904C28.0042 17.1927 27.3197 19.3453 26.035 21.1696C24.7504 22.9935 22.9249 24.4044 20.7956 25.2197C18.6661 26.0347 16.3309 26.2163 14.0927 25.7408C11.8545 25.2654 9.81669 24.1549 8.24355 22.5533C7.98731 22.2944 7.89401 21.924 7.99915 21.5812C8.10429 21.2387 8.39163 20.9758 8.75304 20.8919C9.11445 20.8081 9.49505 20.9158 9.75132 21.1745C11.6666 23.1211 14.3854 24.1457 17.1672 23.9696C19.9492 23.7934 22.5044 22.4346 24.1369 20.2633C25.7695 18.0922 26.3098 15.3345 25.6103 12.7414C24.9108 10.1483 23.0442 7.99012 20.5192 6.85446C17.9944 5.7187 15.0738 5.72361 12.553 6.86807C10.0324 8.01251 8.17402 10.1772 7.48418 12.7727L9.69885 11.1943C9.99594 10.9802 10.3896 10.9345 10.7312 11.0748C11.0729 11.215 11.3106 11.5197 11.3551 11.874C11.3994 12.2284 11.2437 12.5787 10.9466 12.7928L6.78738 15.7899L6.65231 15.8599L6.52743 15.9199V15.9197C6.41138 15.9639 6.28814 15.9875 6.1635 15.9897C6.02772 15.9882 5.89333 15.961 5.76847 15.9099C5.63988 15.864 5.52291 15.7926 5.42519 15.7L2.30577 12.7029C2.0421 12.4494 1.93905 12.0801 2.0356 11.734C2.13215 11.3877 2.41346 11.1174 2.77392 11.0246C3.13414 10.9318 3.51849 11.0308 3.78242 11.2842L5.35259 12.8028C5.91683 10.1328 7.49323 7.75944 9.7757 6.14293C12.0584 4.52666 14.8847 3.78246 17.7056 4.05522C20.527 4.32773 23.1425 5.59752 25.0443 7.61809C26.9463 9.63872 27.9993 12.2661 27.9991 14.9904L28 14.9904ZM16.5621 7.99708C16.2863 7.99708 16.0218 8.10233 15.8268 8.28965C15.6318 8.47697 15.5223 8.73119 15.5223 8.99612V14.9904C15.5206 15.256 15.6293 15.5111 15.8238 15.6997L18.9432 18.6969C19.1384 18.886 19.4042 18.9923 19.6815 18.9923C19.9589 18.9923 20.2246 18.886 20.4198 18.6969C20.6167 18.5093 20.7274 18.254 20.7274 17.9875C20.7274 17.721 20.6167 17.4657 20.4198 17.2781L17.6019 14.5807V8.99612C17.6019 8.73119 17.4924 8.47697 17.2974 8.28965C17.1024 8.10233 16.8378 7.99708 16.5621 7.99708H16.5621Z" fill="#4D85F0"/>
</svg>
