<svg width="13" height="18" viewBox="0 0 13 18" fill="none" xmlns="http://www.w3.org/2000/svg">
<path fill-rule="evenodd" clip-rule="evenodd" d="M6.02946 0.511234C5.32649 0.599105 4.65337 0.846006 4.0669 1.23114C3.74084 1.44529 3.14446 2.03081 2.92634 2.35093C2.61541 2.80733 2.40362 3.28678 2.266 3.8459C2.20324 4.10087 2.19501 4.26123 2.18134 5.49866L2.16622 6.86904H1.80399C1.58794 6.86904 1.36153 6.88957 1.2429 6.9199C0.659271 7.06917 0.209741 7.51194 0.0568975 8.08803C-0.0189658 8.37394 -0.0189658 15.995 0.0568975 16.2809C0.209741 16.857 0.659271 17.2998 1.2429 17.449C1.41719 17.4936 2.06751 17.4999 6.50319 17.4999C12.0734 17.4999 11.7453 17.5117 12.1584 17.2956C12.5471 17.0922 12.8817 16.6411 12.9654 16.2079C12.9877 16.0927 13 14.6508 13 12.1537C13 7.93635 13.0073 8.1076 12.8102 7.72572C12.6893 7.49151 12.3955 7.1974 12.1584 7.07335C11.8716 6.92326 11.6179 6.86904 11.2024 6.86904H10.8402L10.825 5.49866C10.8114 4.26123 10.8031 4.10087 10.7404 3.8459C10.5305 2.9935 10.1657 2.34957 9.55292 1.74979C8.92449 1.13477 8.26767 0.777138 7.4168 0.58668C7.13432 0.52346 6.29634 0.47788 6.02946 0.511234ZM7.07924 1.96616C7.39778 2.03247 7.80671 2.19576 8.05653 2.35642C8.71416 2.77929 9.20415 3.49239 9.34268 4.22808C9.36478 4.34538 9.37936 4.90941 9.37936 5.64596V6.86904H6.50319H3.62701L3.62759 5.63155C3.62823 4.28017 3.63963 4.16921 3.82614 3.6956C4.16543 2.83407 4.96345 2.1729 5.91103 1.96819C6.18055 1.90999 6.80407 1.90889 7.07924 1.96616ZM6.99738 9.79704C7.49895 9.98026 7.84014 10.3926 7.92666 10.9201C8.00564 11.4016 7.78708 11.9285 7.38282 12.2311L7.21675 12.3555L7.2068 13.2804L7.19685 14.2054L7.09385 14.3494C6.76614 14.8074 6.0608 14.7436 5.84498 14.2365C5.80218 14.136 5.7926 13.9528 5.7926 13.2356V12.3577L5.62088 12.2296C5.222 11.9319 5.00105 11.3998 5.07901 10.9245C5.20194 10.175 5.87138 9.65057 6.62162 9.71618C6.73328 9.72595 6.90237 9.76233 6.99738 9.79704Z" fill="white"/>
</svg>
