<svg width="20" height="21" viewBox="0 0 20 21" fill="none" xmlns="http://www.w3.org/2000/svg">
<path d="M10 17.1827C14.0869 17.1827 17.4707 13.7916 17.4707 9.71204C17.4707 5.62512 14.0796 2.24133 9.99268 2.24133C5.91309 2.24133 2.5293 5.62512 2.5293 9.71204C2.5293 13.7916 5.92041 17.1827 10 17.1827ZM10 15.9376C6.54297 15.9376 3.78174 13.1691 3.78174 9.71204C3.78174 6.255 6.53564 3.48645 9.99268 3.48645C13.4497 3.48645 16.2183 6.255 16.2256 9.71204C16.2329 13.1691 13.457 15.9376 10 15.9376ZM6.16943 10.5031H9.99268C10.2783 10.5031 10.5054 10.2833 10.5054 9.99036V5.05383C10.5054 4.76819 10.2783 4.54846 9.99268 4.54846C9.70703 4.54846 9.4873 4.76819 9.4873 5.05383V9.48499H6.16943C5.87646 9.48499 5.65674 9.70471 5.65674 9.99036C5.65674 10.2833 5.87646 10.5031 6.16943 10.5031Z" fill="#A0A6B1"/>
</svg>
