<svg width="30" height="30" viewBox="0 0 30 30" fill="none" xmlns="http://www.w3.org/2000/svg">
<path d="M15.0001 14.1667C16.1538 14.1667 17.2816 13.8246 18.2409 13.1836C19.2002 12.5426 19.9479 11.6316 20.3894 10.5657C20.8309 9.49975 20.9464 8.32686 20.7213 7.19531C20.4962 6.06375 19.9407 5.02435 19.1249 4.20855C18.3091 3.39274 17.2697 2.83717 16.1381 2.61209C15.0066 2.38701 13.8337 2.50253 12.7678 2.94404C11.7019 3.38555 10.7908 4.13322 10.1498 5.09251C9.50887 6.0518 9.16675 7.17961 9.16675 8.33334C9.16675 9.88043 9.78133 11.3642 10.8753 12.4581C11.9693 13.5521 13.453 14.1667 15.0001 14.1667ZM15.0001 4.16667C15.8242 4.16667 16.6298 4.41104 17.315 4.86888C18.0002 5.32672 18.5342 5.97746 18.8496 6.73882C19.1649 7.50018 19.2475 8.33796 19.0867 9.14621C18.9259 9.95447 18.5291 10.6969 17.9464 11.2796C17.3636 11.8623 16.6212 12.2592 15.813 12.4199C15.0047 12.5807 14.1669 12.4982 13.4056 12.1828C12.6442 11.8675 11.9935 11.3334 11.5356 10.6482C11.0778 9.96301 10.8334 9.15742 10.8334 8.33334C10.8334 7.22827 11.2724 6.16846 12.0538 5.38706C12.8352 4.60566 13.895 4.16667 15.0001 4.16667V4.16667Z" fill="#4D85F0"/>
<path d="M25.3917 20.3084C24.0553 18.8959 22.4449 17.7708 20.6589 17.0019C18.8728 16.2329 16.9488 15.8364 15.0042 15.8364C13.0597 15.8364 11.1357 16.2329 9.34963 17.0019C7.56361 17.7708 5.95316 18.8959 4.61675 20.3084C4.32701 20.6178 4.16609 21.0261 4.16675 21.45V25.8334C4.16675 26.2754 4.34234 26.6993 4.65491 27.0119C4.96747 27.3244 5.39139 27.5 5.83342 27.5H24.1667C24.6088 27.5 25.0327 27.3244 25.3453 27.0119C25.6578 26.6993 25.8334 26.2754 25.8334 25.8334V21.45C25.8363 21.0272 25.6785 20.6191 25.3917 20.3084V20.3084ZM24.1667 25.8334H5.83342V21.4417C7.01444 20.1981 8.43616 19.2078 10.012 18.5311C11.5879 17.8544 13.285 17.5054 15.0001 17.5054C16.7151 17.5054 18.4122 17.8544 19.9881 18.5311C21.564 19.2078 22.9857 20.1981 24.1667 21.4417V25.8334Z" fill="#4D85F0"/>
</svg>
