<svg width="20" height="21" viewBox="0 0 20 21" fill="none" xmlns="http://www.w3.org/2000/svg">
<path d="M14.8982 5.34948C14.8982 4.94884 14.5608 4.61145 14.1602 4.61145H13.886C13.6751 6.9308 11.7354 8.76506 9.35291 8.76506C6.97035 8.76506 5.03063 6.95181 4.81978 4.61145H4.54564C4.145 4.61145 3.80762 4.94883 3.80762 5.34948V16.8404C3.80762 17.2411 4.145 17.5785 4.54564 17.5785H10.3017L14.898 11.0845L14.8982 5.34948ZM10.4916 14.4579C10.4916 14.5634 10.4073 14.6688 10.2807 14.6688L6.29575 14.6687C6.1903 14.6687 6.08484 14.5844 6.08484 14.4578V13.8464C6.08484 13.7409 6.16912 13.6355 6.29575 13.6355L10.2807 13.6356C10.3861 13.6356 10.4916 13.7199 10.4916 13.8465V14.4579ZM12.4524 11.5692C12.4524 11.6957 12.3681 11.7801 12.2414 11.7801H6.29567C6.19022 11.7801 6.08477 11.6959 6.08477 11.5692V10.9579C6.08477 10.8314 6.16904 10.747 6.29567 10.747H12.2414C12.3469 10.747 12.4524 10.8312 12.4524 10.9579V11.5692Z" fill="#F18F5A"/>
<path d="M17.8716 12.0543L16.3745 11C16.2269 10.8946 16.0371 10.9368 15.9529 11.0843L15.3203 11.9909L17.3233 13.4035L17.9559 12.497C18.0403 12.3494 17.9981 12.1597 17.8716 12.0543L17.8716 12.0543Z" fill="#F18F5A"/>
<path d="M10.5545 18.6954C10.5122 18.7587 10.4912 18.8431 10.4912 18.9274L10.5545 20.319C10.5755 20.572 10.8074 20.7196 11.0394 20.6564L12.3677 20.2557C12.452 20.2347 12.5154 20.1715 12.5574 20.1081L12.9791 19.4967L10.9761 18.084L10.5545 18.6954Z" fill="#F18F5A"/>
<path d="M11.4609 17.4307L13.4641 18.8434L16.8164 14.0572L14.8135 12.6446L11.4609 17.4307Z" fill="#F18F5A"/>
<path d="M9.37383 7.7741C11.3346 7.7741 12.9371 6.17173 12.9371 4.21081C12.9371 2.25004 11.3348 0.647522 9.37383 0.647522C7.41307 0.647522 5.81055 2.24989 5.81055 4.21081C5.81055 6.17158 7.39187 7.7741 9.37383 7.7741ZM7.49733 3.81025C7.49733 3.72597 7.5816 3.64155 7.66602 3.64155H8.8045V2.50307C8.8045 2.4188 8.88877 2.33438 8.9732 2.33438H9.77444C9.85871 2.33438 9.94313 2.41865 9.94313 2.50307V3.64155H11.0816C11.1659 3.64155 11.2503 3.72583 11.2503 3.81025V4.61149C11.2503 4.69576 11.166 4.78018 11.0816 4.78018H9.94313V5.91866C9.94313 6.00293 9.85886 6.08735 9.77444 6.08735H8.9732C8.88892 6.08735 8.8045 6.00308 8.8045 5.91866V4.78018H7.66602C7.58175 4.78018 7.49733 4.69591 7.49733 4.61149V3.81025Z" fill="#F18F5A"/>
</svg>
