<svg width="30" height="30" viewBox="0 0 30 30" fill="none" xmlns="http://www.w3.org/2000/svg">
<path d="M24.091 5.57143H19.1228L17.5747 3.38151C17.4055 3.14311 17.1218 3 16.8182 3H13.1819C12.8783 3 12.5946 3.14311 12.4256 3.38151L10.8772 5.57143H5.90909C5.40726 5.57143 5 5.95466 5 6.42858V26.1429C5 26.6168 5.40726 27 5.90909 27H24.0909C24.5927 27 25 26.6168 25 26.1429V6.42858C25 5.95466 24.5927 5.57143 24.0909 5.57143H24.091ZM13.6681 4.71429H16.3316L17.7271 6.68822V8.14286H12.2726V6.68822L13.6681 4.71429ZM23.1819 25.2857H6.81823V7.28572H10.4546V9C10.4546 9.47392 10.8619 9.85715 11.3637 9.85715H18.6364C19.1382 9.85715 19.5455 9.47392 19.5455 9V7.28572H23.1819V25.2857ZM14.3543 7.03739C14.1908 6.87457 14.0907 6.65168 14.0907 6.42877C14.0907 6.1965 14.1908 5.98222 14.3543 5.82015C14.6908 5.50293 15.3089 5.50293 15.6454 5.82015C15.8089 5.98221 15.9089 6.20587 15.9089 6.42877C15.9089 6.65168 15.8089 6.87456 15.6454 7.03739C15.4727 7.1916 15.2363 7.28592 14.9998 7.28592C14.7634 7.28592 14.527 7.1916 14.3543 7.03739ZM7.72732 13.2857C7.72732 12.8118 8.13459 12.4286 8.63642 12.4286H9.54551V11.5714C9.54551 11.0975 9.95277 10.7143 10.4546 10.7143C10.9564 10.7143 11.3637 11.0975 11.3637 11.5714V12.4286H12.2728C12.7746 12.4286 13.1819 12.8118 13.1819 13.2857C13.1819 13.7596 12.7746 14.1429 12.2728 14.1429H11.3637V15C11.3637 15.4739 10.9564 15.8571 10.4546 15.8571C9.95277 15.8571 9.54551 15.4739 9.54551 15V14.1429H8.63642C8.13459 14.1429 7.72732 13.7596 7.72732 13.2857ZM21.3637 14.1429C21.8655 14.1429 22.2728 14.5261 22.2728 15C22.2728 15.4739 21.8655 15.8571 21.3637 15.8571H15.0001C14.4982 15.8571 14.091 15.4739 14.091 15C14.091 14.5261 14.4982 14.1429 15.0001 14.1429H21.3637ZM22.2728 18.4286C22.2728 18.9025 21.8655 19.2857 21.3637 19.2857H8.63642C8.13459 19.2857 7.72732 18.9025 7.72732 18.4286C7.72732 17.9547 8.13459 17.5714 8.63642 17.5714H21.3637C21.8655 17.5714 22.2728 17.9547 22.2728 18.4286ZM22.2728 21.8571C22.2728 22.3311 21.8655 22.7143 21.3637 22.7143H8.63642C8.13459 22.7143 7.72732 22.3311 7.72732 21.8571C7.72732 21.3832 8.13459 21 8.63642 21H21.3637C21.8655 21 22.2728 21.3832 22.2728 21.8571Z" fill="#4D85F0" stroke="white" stroke-width="0.2"/>
</svg>
