<svg width="41" height="40" viewBox="0 0 41 40" fill="none" xmlns="http://www.w3.org/2000/svg">
<g clip-path="url(#clip0_399_2630)">
<path d="M20.1562 5C16.2654 5 12.9906 7.08249 10.8724 10.0228C4.96535 10.0898 0.15625 14.911 0.15625 20.8333C0.15625 26.7971 5.0258 31.6667 10.9896 31.6667H15.1562V28.3333H10.9896C6.8267 28.3333 3.48958 24.9962 3.48958 20.8333C3.48958 16.6704 6.8267 13.3333 10.9896 13.3333C11.0479 13.3333 11.1837 13.345 11.4062 13.3561L12.4251 13.4082L12.9329 12.5228C14.3731 10.0206 17.0527 8.33333 20.1562 8.33333C24.3305 8.33333 27.7462 11.3758 28.3757 15.3581L28.6296 16.9596L30.2376 16.7513C30.6099 16.7028 30.8478 16.6667 30.9896 16.6667C34.2303 16.6667 36.8229 19.2593 36.8229 22.5C36.8229 25.7407 34.2303 28.3333 30.9896 28.3333H25.1562V31.6667H30.9896C36.0322 31.6667 40.1562 27.5426 40.1562 22.5C40.1562 17.5161 36.118 13.4603 31.1556 13.3659C29.7061 8.56929 25.4097 5 20.1562 5ZM20.1562 15L13.4896 21.6667H18.4896V35H21.8229V21.6667H26.8229L20.1562 15Z" fill="#61C091"/>
</g>
<defs>
<clipPath id="clip0_399_2630">
<rect width="40" height="40" fill="white" transform="translate(0.15625)"/>
</clipPath>
</defs>
</svg>
