<svg width="30" height="30" viewBox="0 0 30 30" fill="none" xmlns="http://www.w3.org/2000/svg">
<path d="M14.8365 12.5481C14.8216 12.5476 14.8064 12.5479 14.7915 12.5491C14.7244 12.5545 14.6593 12.5749 14.601 12.6089L8.27754 16.2599C8.13926 16.3409 8.0542 16.4893 8.0542 16.6497C8.0542 16.8102 8.13926 16.9585 8.27754 17.0396L10.4391 18.2876L10.5007 18.3228L14.8433 20.8133L18.8877 18.4754L19.3277 18.2214L20.6983 17.4294V23.8345C20.6967 24.4392 21.6029 24.4392 21.6005 23.8345V16.6698V16.6545C21.6029 16.4902 21.5163 16.3376 21.3738 16.2558L15.0503 12.6082C14.9851 12.5703 14.9114 12.5494 14.836 12.5474L14.8365 12.5481ZM10.762 19.514V21.7505H10.7622C10.7616 21.913 10.8481 22.063 10.9888 22.144L14.6019 24.2279H14.6021C14.7414 24.3077 14.9125 24.3077 15.0518 24.2279L18.6649 22.144C18.8043 22.0622 18.8894 21.9122 18.888 21.7505V19.5166L15.0667 21.7231C14.9274 21.8031 14.7563 21.8031 14.617 21.7231L10.762 19.514Z" fill="#4D85F0"/>
<path d="M3.98829 5.32642C3.74035 5.32742 3.53958 5.5282 3.53857 5.77613V26.5502C3.53958 26.7983 3.74036 26.9991 3.98829 26.9999H25.6618C25.9111 27.0009 26.1141 26.7995 26.1151 26.5502V5.77613C26.1141 5.52779 25.9127 5.32682 25.6644 5.32642H20.6949V7.58144C20.6959 7.83059 20.4946 8.03357 20.2452 8.03458H17.5334C17.2838 8.03357 17.0827 7.83059 17.0837 7.58144V5.32642H12.57V7.58144C12.5706 7.70178 12.523 7.81728 12.4377 7.90235C12.3527 7.98762 12.2372 8.03519 12.1168 8.03459H9.41104C9.2907 8.03519 9.1752 7.98762 9.08993 7.90235C9.00486 7.81729 8.95729 7.70178 8.95769 7.58144V5.32642H3.98829ZM4.44164 10.7458H25.211V26.0968H4.44164V10.7458Z" fill="#4D85F0"/>
<path d="M10.3119 3.52014C10.1921 3.52014 10.0774 3.56771 9.99258 3.65238C9.90792 3.73704 9.86035 3.85194 9.86035 3.97167V7.13239H11.6665V3.97167C11.6665 3.85194 11.6189 3.73704 11.5342 3.65238C11.4496 3.56771 11.3347 3.52014 11.2149 3.52014H10.3119Z" fill="#4D85F0"/>
<path d="M18.4393 3.52014C18.3193 3.52014 18.2044 3.56771 18.1198 3.65238C18.0351 3.73704 17.9875 3.85194 17.9875 3.97167V7.13239H19.7937V3.97167C19.7937 3.85194 19.7459 3.73704 19.6612 3.65238C19.5766 3.56771 19.4617 3.52014 19.3417 3.52014H18.4393Z" fill="#4D85F0"/>
</svg>
