<svg width="50" height="50" viewBox="0 0 50 50" fill="none" xmlns="http://www.w3.org/2000/svg">
<path fill-rule="evenodd" clip-rule="evenodd" d="M31.4772 23.8593C31.0429 23.7952 30.4653 23.8906 29.9183 24.2071C29.3705 24.5228 28.9988 24.9753 28.8369 25.3833C28.4289 25.5451 27.9764 25.9169 27.6607 26.4647C27.3445 27.0117 27.2489 27.5889 27.3129 28.0236C27.0403 28.3681 26.834 28.916 26.834 29.5479C26.834 30.1798 27.04 30.7277 27.3129 31.0722C27.2489 31.5066 27.3442 32.0841 27.6607 32.6311C27.9764 33.179 28.4289 33.5507 28.8369 33.7125C28.9987 34.1205 29.3705 34.573 29.9183 34.8888C30.4653 35.205 31.0426 35.3006 31.4772 35.2366C31.8218 35.5091 32.3696 35.7155 33.0015 35.7155C33.6334 35.7155 34.1813 35.5094 34.5258 35.2366C34.9602 35.3006 35.5377 35.2053 36.0847 34.8888C36.6326 34.5731 37.0043 34.1206 37.1662 33.7125C37.5742 33.5507 38.0266 33.179 38.3424 32.6311C38.6586 32.0841 38.7542 31.5069 38.6902 31.0722C38.9627 30.7277 39.1691 30.1798 39.1691 29.5479C39.1691 28.916 38.963 28.3682 38.6902 28.0236C38.7542 27.5892 38.6589 27.0117 38.3424 26.4647C38.0267 25.9169 37.5742 25.5451 37.1662 25.3833C37.0043 24.9753 36.6326 24.5228 36.0847 24.2071C35.5377 23.8909 34.9605 23.7952 34.5258 23.8593C34.1813 23.5867 33.6334 23.3804 33.0015 23.3804C32.3696 23.3804 31.8218 23.5864 31.4772 23.8593ZM33.0015 32.8762C34.8385 32.8762 36.3304 31.3843 36.3304 29.5474C36.3304 27.7105 34.8385 26.2186 33.0015 26.2186C31.1646 26.2186 29.6727 27.7105 29.6727 29.5474C29.6727 31.3843 31.1646 32.8762 33.0015 32.8762ZM33.0015 31.3376C32.0138 31.3376 31.2113 30.5351 31.2113 29.5474C31.2113 28.5597 32.0138 27.7572 33.0015 27.7572C33.9892 27.7572 34.7918 28.5597 34.7918 29.5474C34.7918 30.5351 33.9892 31.3376 33.0015 31.3376Z" fill="#4D85F0"/>
<path fill-rule="evenodd" clip-rule="evenodd" d="M26.4359 31.9733C26.3903 31.7474 26.3699 31.529 26.3708 31.3246C26.1018 30.8619 25.9097 30.2432 25.9097 29.5478C25.9097 29.0832 25.9952 28.6529 26.1326 28.2806H13.3062C12.8815 28.2806 12.5369 27.9361 12.5369 27.5113C12.5369 26.9167 12.0544 26.4343 11.4599 26.4343C11.0352 26.4343 10.6906 26.0898 10.6906 25.665V13.3563C10.6906 12.9316 11.0351 12.587 11.4599 12.587C12.0545 12.587 12.5369 12.1045 12.5369 11.51C12.5369 11.0853 12.8814 10.7407 13.3062 10.7407H36.6927C37.1174 10.7407 37.462 11.0852 37.462 11.51C37.462 12.1046 37.9445 12.587 38.539 12.587C38.9637 12.587 39.3083 12.9315 39.3083 13.3563V25.665C39.3083 25.8188 39.2632 25.9623 39.1852 26.0823C39.5004 26.6609 39.6309 27.2602 39.6295 27.7712C39.8985 28.2339 40.0905 28.8526 40.0905 29.548C40.0905 30.2434 39.8985 30.8619 39.6295 31.3234C39.63 31.5284 39.6097 31.7474 39.5644 31.9732H40.3853C41.0788 31.9732 41.7442 31.6974 42.2346 31.2069C42.7251 30.7165 43.0009 30.051 43.0009 29.3576V9.66372C43.0009 8.97026 42.7251 8.30484 42.2346 7.8144C41.7442 7.32397 41.0788 7.0481 40.3853 7.0481H9.61367C8.92021 7.0481 8.2548 7.32394 7.76435 7.8144C7.27392 8.30482 6.99805 8.97029 6.99805 9.66372V29.3576C6.99805 30.051 7.27389 30.7165 7.76435 31.2069C8.25477 31.6973 8.92024 31.9732 9.61367 31.9732L26.4359 31.9733ZM26.5337 26.7421H13.9606C13.707 25.9162 13.0553 25.2645 12.2294 25.0109V14.0105C13.0553 13.7569 13.707 13.1052 13.9606 12.2793H36.0388C36.2924 13.1052 36.9441 13.7569 37.7699 14.0105V24.558C37.4999 24.139 37.0886 23.7211 36.5451 23.4076C35.9431 23.0598 35.3112 22.9164 34.7758 22.9183C34.3818 22.6886 33.8735 22.5152 33.3006 22.4696H32.7C32.1272 22.5153 31.6186 22.6886 31.2241 22.9183C30.6886 22.9172 30.0573 23.0598 29.4553 23.4076C28.8528 23.7555 28.4127 24.231 28.1469 24.6951C27.6835 24.9611 27.2078 25.4004 26.86 26.0029C26.7185 26.2472 26.6114 26.4964 26.5339 26.742L26.5337 26.7421ZM16.3836 19.9902H33.6157C34.0405 19.9902 34.3851 19.6456 34.3851 19.2209C34.3851 18.7961 34.0405 18.4515 33.6157 18.4515H16.3836C15.9588 18.4515 15.6143 18.7961 15.6143 19.2209C15.6143 19.6456 15.9588 19.9902 16.3836 19.9902ZM20.6916 16.4336H29.3077C29.7325 16.4336 30.077 16.0891 30.077 15.6643C30.077 15.2395 29.7325 14.895 29.3077 14.895H20.6916C20.2669 14.895 19.9223 15.2395 19.9223 15.6643C19.9223 16.0891 20.2668 16.4336 20.6916 16.4336Z" fill="#4D85F0"/>
<path fill-rule="evenodd" clip-rule="evenodd" d="M28.538 34.9421V40.9283C28.538 41.4396 28.7787 41.905 29.1411 42.174C29.5812 42.5001 30.1307 42.5254 30.5933 42.2479L32.9996 40.8052L35.4058 42.2479C35.8685 42.5254 36.4183 42.5001 36.8581 42.174C37.2205 41.905 37.4612 41.4398 37.4612 40.9283V34.9426C37.2175 35.2171 36.9109 35.4762 36.5441 35.688C35.9421 36.0359 35.3102 36.1793 34.7758 36.1774C34.3131 36.4463 33.6944 36.6384 32.999 36.6384C32.3036 36.6384 31.6851 36.4463 31.2236 36.1774C30.6881 36.1793 30.0561 36.0364 29.4542 35.688C29.0874 35.4762 28.7808 35.2171 28.5371 34.9421H28.538Z" fill="#4D85F0"/>
</svg>
