<svg width="18" height="17" viewBox="0 0 18 17" fill="none" xmlns="http://www.w3.org/2000/svg">
<path d="M0.518555 14.3517C0.518555 15.8092 1.24365 16.5636 2.73047 16.5636H15.1743C16.7124 16.5636 17.4741 15.8092 17.4741 14.3004V3.13098C17.4741 1.62219 16.7124 0.860474 15.1743 0.860474H6.04834C4.51758 0.860474 3.74854 1.62219 3.74854 3.13098V6.62463H1.99805C1.06787 6.62463 0.518555 7.13 0.518555 8.00159V14.3517ZM4.67871 15.3844C4.83984 15.0695 4.92773 14.7032 4.92773 14.2784V3.1969C4.92773 2.43518 5.33789 2.03967 6.07031 2.03967H15.1597C15.8848 2.03967 16.2949 2.43518 16.2949 3.1969V14.2345C16.2949 14.9962 15.8848 15.3844 15.1597 15.3844H4.67871ZM6.83203 5.22571H14.4053C14.6616 5.22571 14.8594 5.02063 14.8594 4.76428C14.8594 4.51526 14.6616 4.32483 14.4053 4.32483H6.83203C6.56836 4.32483 6.37061 4.51526 6.37061 4.76428C6.37061 5.02063 6.56836 5.22571 6.83203 5.22571ZM6.83203 7.80383H14.4053C14.6616 7.80383 14.8594 7.60608 14.8594 7.35706C14.8594 7.10071 14.6616 6.90295 14.4053 6.90295H6.83203C6.56836 6.90295 6.37061 7.10071 6.37061 7.35706C6.37061 7.60608 6.56836 7.80383 6.83203 7.80383ZM1.69775 14.3517V8.22864C1.69775 7.95764 1.85889 7.80383 2.12988 7.80383H3.74854V14.3517C3.74854 14.9596 3.30176 15.3844 2.73047 15.3844C2.15186 15.3844 1.69775 14.9376 1.69775 14.3517ZM7.26416 13.026H9.16113C9.71777 13.026 10.0547 12.6891 10.0547 12.1324V10.3893C10.0547 9.82532 9.71777 9.4884 9.16113 9.4884H7.26416C6.7002 9.4884 6.36328 9.82532 6.36328 10.3893V12.1324C6.36328 12.6891 6.7002 13.026 7.26416 13.026ZM11.373 10.3893H14.4053C14.6616 10.3893 14.8521 10.1989 14.8521 9.94983C14.8521 9.68616 14.6616 9.4884 14.4053 9.4884H11.373C11.1094 9.4884 10.9189 9.68616 10.9189 9.94983C10.9189 10.1989 11.1094 10.3893 11.373 10.3893ZM11.373 13.026H14.4053C14.6616 13.026 14.8521 12.8356 14.8521 12.5865C14.8521 12.3302 14.6616 12.1251 14.4053 12.1251H11.373C11.1094 12.1251 10.9189 12.3302 10.9189 12.5865C10.9189 12.8356 11.1094 13.026 11.373 13.026Z" fill="#A0A6B1"/>
</svg>
