<svg width="41" height="40" viewBox="0 0 41 40" fill="none" xmlns="http://www.w3.org/2000/svg">
<path d="M16.5038 5C13.9222 5 11.8228 7.09932 11.8228 9.68099V11.4714C11.8228 13.2564 12.8141 14.8592 14.4107 15.6576C14.8707 15.8859 15.1562 16.3486 15.1562 16.862V23.3333H6.82284C5.00106 23.3333 3.4895 24.8449 3.4895 26.6667V33.3333H6.82284V35H33.4895V33.3333H36.8228V31.6667V26.6667C36.8228 24.8449 35.3113 23.3333 33.4895 23.3333H25.1562V16.862C25.1562 16.3486 25.4416 15.8859 25.9016 15.6576C27.4983 14.8592 28.4895 13.2564 28.4895 11.4714V9.68099C28.4895 7.09932 26.3885 5 23.8085 5H16.5038ZM16.5038 8.33333H23.8085C24.5535 8.33333 25.1562 8.93599 25.1562 9.68099V11.4714C25.1562 11.9847 24.8707 12.4474 24.4107 12.6758C22.8141 13.4741 21.8228 15.077 21.8228 16.862V23.3333H18.4895V16.862C18.4895 15.077 17.4983 13.4741 15.9016 12.6758C15.4416 12.4474 15.1562 11.9847 15.1562 11.4714V9.68099C15.1562 8.93599 15.7588 8.33333 16.5038 8.33333ZM6.82284 26.6667H33.4895V30H6.82284V26.6667Z" fill="#F3CA49"/>
</svg>
