<svg width="20" height="21" viewBox="0 0 20 21" fill="none" xmlns="http://www.w3.org/2000/svg">
<path d="M10.0002 11.125C7.3585 11.125 5.2085 8.97496 5.2085 6.33329C5.2085 3.69163 7.3585 1.54163 10.0002 1.54163C12.6418 1.54163 14.7918 3.69163 14.7918 6.33329C14.7918 8.97496 12.6418 11.125 10.0002 11.125ZM10.0002 2.79163C8.05016 2.79163 6.4585 4.38329 6.4585 6.33329C6.4585 8.28329 8.05016 9.87496 10.0002 9.87496C11.9502 9.87496 13.5418 8.28329 13.5418 6.33329C13.5418 4.38329 11.9502 2.79163 10.0002 2.79163Z" fill="#A0A6B1"/>
<path d="M13.1833 19.4583C12.8666 19.4583 12.5666 19.3416 12.35 19.125C12.0916 18.8666 11.975 18.4916 12.0333 18.1L12.1916 16.975C12.2333 16.6833 12.4083 16.3416 12.6166 16.125L15.5666 13.175C16.75 11.9917 17.7916 12.6667 18.3 13.175C18.7333 13.6083 18.9583 14.075 18.9583 14.5416C18.9583 15.0166 18.7416 15.4583 18.3 15.9L15.3499 18.85C15.1416 19.0583 14.7916 19.2333 14.5 19.275L13.375 19.4333C13.3083 19.45 13.25 19.4583 13.1833 19.4583ZM16.925 13.7666C16.775 13.7666 16.6416 13.8667 16.45 14.0583L13.5 17.0083C13.475 17.0333 13.4333 17.1166 13.4333 17.15L13.2833 18.1916L14.325 18.0416C14.3583 18.0333 14.4416 17.9917 14.4666 17.9667L17.4166 15.0166C17.55 14.8833 17.7083 14.6916 17.7083 14.5416C17.7083 14.4166 17.6083 14.2417 17.4166 14.0583C17.2166 13.8583 17.0666 13.7666 16.925 13.7666Z" fill="#A0A6B1"/>
<path d="M17.4333 16.5167C17.375 16.5167 17.3167 16.5084 17.2667 16.4917C16.1667 16.1834 15.2917 15.3084 14.9833 14.2084C14.8917 13.875 15.0833 13.5334 15.4167 13.4417C15.75 13.35 16.0917 13.5417 16.1833 13.875C16.375 14.5583 16.9167 15.1 17.6 15.2917C17.9333 15.3833 18.125 15.7333 18.0334 16.0583C17.9584 16.3333 17.7083 16.5167 17.4333 16.5167Z" fill="#A0A6B1"/>
<path d="M2.8418 19.4583C2.50013 19.4583 2.2168 19.175 2.2168 18.8333C2.2168 15.275 5.70849 12.375 10.0002 12.375C10.9085 12.375 11.8085 12.5084 12.6501 12.7584C12.9835 12.8584 13.1668 13.2083 13.0668 13.5333C12.9668 13.8667 12.6168 14.05 12.2918 13.95C11.5585 13.7333 10.7918 13.6167 10.0002 13.6167C6.40015 13.6167 3.4668 15.95 3.4668 18.825C3.4668 19.175 3.18346 19.4583 2.8418 19.4583Z" fill="#A0A6B1"/>
</svg>
