<svg width="41" height="40" viewBox="0 0 41 40" fill="none" xmlns="http://www.w3.org/2000/svg">
<path d="M20.1563 3.3335C18.7763 3.3335 17.6563 4.4535 17.6563 5.8335V6.99886C13.357 8.11727 10.1563 12.0286 10.1563 16.6668V24.73L8.95516 28.3335H6.823V31.6668H17.2722C16.9787 32.1733 16.8238 32.7481 16.823 33.3335C16.823 34.2176 17.1742 35.0654 17.7993 35.6905C18.4244 36.3156 19.2723 36.6668 20.1563 36.6668C21.0404 36.6668 21.8882 36.3156 22.5134 35.6905C23.1385 35.0654 23.4897 34.2176 23.4897 33.3335C23.4879 32.7478 23.3318 32.173 23.0372 31.6668H33.4897V28.3335H31.3575L30.1563 24.73V16.6668C30.1563 12.0286 26.9557 8.11727 22.6563 6.99886V5.8335C22.6563 4.4535 21.5363 3.3335 20.1563 3.3335ZM20.1563 10.0002C23.857 10.0002 26.823 12.9662 26.823 16.6668V25.2703L27.8419 28.3335H12.4708L13.4897 25.2703V16.6668C13.4897 12.9662 16.4557 10.0002 20.1563 10.0002Z" fill="#C06161"/>
</svg>
