<svg width="20" height="21" viewBox="0 0 20 21" fill="none" xmlns="http://www.w3.org/2000/svg">
<path d="M4.99756 17.4649H15.0024C16.5332 17.4649 17.2949 16.7032 17.2949 15.1944V6.25153C17.2949 4.74274 16.5332 3.98102 15.0024 3.98102H4.99756C3.4668 3.98102 2.69775 4.73541 2.69775 6.25153V15.1944C2.69775 16.7105 3.4668 17.4649 4.99756 17.4649ZM4.8877 16.2857C4.23584 16.2857 3.87695 15.9415 3.87695 15.2603V8.35358C3.87695 7.67975 4.23584 7.32819 4.8877 7.32819H15.0977C15.7495 7.32819 16.1157 7.67975 16.1157 8.35358V15.2603C16.1157 15.9415 15.7495 16.2857 15.0977 16.2857H4.8877ZM8.56445 9.95758H8.99658C9.25293 9.95758 9.34082 9.88434 9.34082 9.62799V9.19586C9.34082 8.93951 9.25293 8.85895 8.99658 8.85895H8.56445C8.30811 8.85895 8.22021 8.93951 8.22021 9.19586V9.62799C8.22021 9.88434 8.30811 9.95758 8.56445 9.95758ZM11.0034 9.95758H11.4282C11.6846 9.95758 11.7725 9.88434 11.7725 9.62799V9.19586C11.7725 8.93951 11.6846 8.85895 11.4282 8.85895H11.0034C10.7397 8.85895 10.6592 8.93951 10.6592 9.19586V9.62799C10.6592 9.88434 10.7397 9.95758 11.0034 9.95758ZM13.4351 9.95758H13.8672C14.1235 9.95758 14.2041 9.88434 14.2041 9.62799V9.19586C14.2041 8.93951 14.1235 8.85895 13.8672 8.85895H13.4351C13.1787 8.85895 13.0908 8.93951 13.0908 9.19586V9.62799C13.0908 9.88434 13.1787 9.95758 13.4351 9.95758ZM6.13281 12.3526H6.56494C6.82129 12.3526 6.90186 12.2794 6.90186 12.023V11.5909C6.90186 11.3345 6.82129 11.2613 6.56494 11.2613H6.13281C5.87646 11.2613 5.78857 11.3345 5.78857 11.5909V12.023C5.78857 12.2794 5.87646 12.3526 6.13281 12.3526ZM8.56445 12.3526H8.99658C9.25293 12.3526 9.34082 12.2794 9.34082 12.023V11.5909C9.34082 11.3345 9.25293 11.2613 8.99658 11.2613H8.56445C8.30811 11.2613 8.22021 11.3345 8.22021 11.5909V12.023C8.22021 12.2794 8.30811 12.3526 8.56445 12.3526ZM11.0034 12.3526H11.4282C11.6846 12.3526 11.7725 12.2794 11.7725 12.023V11.5909C11.7725 11.3345 11.6846 11.2613 11.4282 11.2613H11.0034C10.7397 11.2613 10.6592 11.3345 10.6592 11.5909V12.023C10.6592 12.2794 10.7397 12.3526 11.0034 12.3526ZM13.4351 12.3526H13.8672C14.1235 12.3526 14.2041 12.2794 14.2041 12.023V11.5909C14.2041 11.3345 14.1235 11.2613 13.8672 11.2613H13.4351C13.1787 11.2613 13.0908 11.3345 13.0908 11.5909V12.023C13.0908 12.2794 13.1787 12.3526 13.4351 12.3526ZM6.13281 14.7549H6.56494C6.82129 14.7549 6.90186 14.6744 6.90186 14.418V13.9859C6.90186 13.7296 6.82129 13.6563 6.56494 13.6563H6.13281C5.87646 13.6563 5.78857 13.7296 5.78857 13.9859V14.418C5.78857 14.6744 5.87646 14.7549 6.13281 14.7549ZM8.56445 14.7549H8.99658C9.25293 14.7549 9.34082 14.6744 9.34082 14.418V13.9859C9.34082 13.7296 9.25293 13.6563 8.99658 13.6563H8.56445C8.30811 13.6563 8.22021 13.7296 8.22021 13.9859V14.418C8.22021 14.6744 8.30811 14.7549 8.56445 14.7549ZM11.0034 14.7549H11.4282C11.6846 14.7549 11.7725 14.6744 11.7725 14.418V13.9859C11.7725 13.7296 11.6846 13.6563 11.4282 13.6563H11.0034C10.7397 13.6563 10.6592 13.7296 10.6592 13.9859V14.418C10.6592 14.6744 10.7397 14.7549 11.0034 14.7549Z" fill="#4D85F0"/>
</svg>
