<svg width="34" height="34" viewBox="0 0 34 34" fill="none" xmlns="http://www.w3.org/2000/svg">
<path d="M20.8477 13.349V19.9928C22.3208 19.6019 23.4031 18.2492 23.4031 16.6559C23.4031 15.0625 22.3208 13.7398 20.8477 13.3489V13.349Z" fill="#F18F5A"/>
<path d="M17.6899 8.41877L11.7977 12.8981H5.03362C3.77099 12.8981 2.71875 13.9202 2.71875 15.213V18.1291C2.71875 19.3917 3.74082 20.4439 5.03362 20.4439H5.93555L6.86743 25.7651C6.92761 26.0658 7.19813 26.3061 7.49885 26.3061H10.024C10.2044 26.3061 10.3847 26.2159 10.5351 26.0655C10.6552 25.9152 10.7154 25.7348 10.6854 25.5245L9.78351 20.4437H11.7977L17.6899 24.8929C17.8703 25.013 18.0808 25.1034 18.2911 25.1034C18.4415 25.1034 18.6218 25.0734 18.7722 24.9833C19.1029 24.8029 19.2832 24.4423 19.2832 24.0514L19.283 9.26064C19.283 8.99012 19.1928 8.71962 19.0125 8.53908C18.6216 8.14842 18.0806 8.14842 17.6897 8.41892L17.6899 8.41877Z" fill="#F18F5A"/>
<path d="M30.3756 15.7539H26.3472C25.8362 15.7539 25.4453 16.1748 25.4453 16.6558C25.4453 17.1369 25.8662 17.5578 26.3472 17.5578H30.3756C30.8866 17.5578 31.2775 17.1369 31.2775 16.6558C31.2775 16.1748 30.8566 15.7539 30.3756 15.7539Z" fill="#F18F5A"/>
<path d="M28.9052 22.0368L25.6585 19.6619C25.2376 19.3612 24.6664 19.4514 24.3958 19.8725C24.0951 20.2933 24.1853 20.8645 24.6064 21.1351L27.8229 23.5099C27.9733 23.6301 28.1836 23.6903 28.364 23.6903C28.6345 23.6903 28.9352 23.5701 29.1155 23.2994C29.4162 22.9087 29.3261 22.3375 28.9052 22.0368L28.9052 22.0368Z" fill="#F18F5A"/>
<path d="M25.1173 13.8298C25.2976 13.8298 25.478 13.7696 25.6583 13.6494L28.9351 11.2746C29.3559 10.9739 29.4461 10.4029 29.1456 10.012C28.8449 9.59111 28.2739 9.50094 27.883 9.80144L24.6062 12.1763C24.1854 12.477 24.0952 13.048 24.3957 13.4389C24.546 13.7096 24.8467 13.8298 25.1172 13.8298L25.1173 13.8298Z" fill="#F18F5A"/>
</svg>
