<svg width="30" height="30" viewBox="0 0 30 30" fill="none" xmlns="http://www.w3.org/2000/svg">
<path d="M16.4077 6.58276V9.93896C11.5502 11.3226 7.84768 13.6958 5.36247 17.0001C4.54348 18.0732 3.86572 19.2598 3.35747 20.5306C3.18799 20.9824 3.05197 21.3533 2.93911 21.6639L3.30532 21.7686C3.27691 21.7968 3.24617 21.8013 3.21796 21.8295H2.87802C2.79337 22.0272 2.74064 22.2811 2.71243 22.4222L2.39856 24.0001L3.61023 22.9279C8.38298 18.7764 14.5717 18.4143 16.4074 18.3861V21.5504L27.5044 14.0624L16.4077 6.58276ZM17.5322 8.7273L25.5258 14.0882L17.5322 19.4582V17.3138L17.0004 17.2788C16.2378 17.2506 9.91086 17.084 4.40346 20.8965C4.8835 19.7388 5.50658 18.6354 6.26893 17.6189C8.66951 14.4276 12.3123 12.1444 17.1134 10.8453L17.5317 10.7842V8.72681L17.5322 8.7273Z" fill="#4D85F0"/>
</svg>
