<svg width="18" height="19" viewBox="0 0 18 19" fill="none" xmlns="http://www.w3.org/2000/svg">
<path d="M12 17.5627H6C3.2625 17.5627 1.6875 15.9877 1.6875 13.2502V5.75024C1.6875 3.01274 3.2625 1.43774 6 1.43774H12C14.7375 1.43774 16.3125 3.01274 16.3125 5.75024V13.2502C16.3125 15.9877 14.7375 17.5627 12 17.5627ZM6 2.56274C3.855 2.56274 2.8125 3.60524 2.8125 5.75024V13.2502C2.8125 15.3952 3.855 16.4377 6 16.4377H12C14.145 16.4377 15.1875 15.3952 15.1875 13.2502V5.75024C15.1875 3.60524 14.145 2.56274 12 2.56274H6Z" fill="#A0A6B1"/>
<path d="M6.74951 8.83273C6.62201 8.83273 6.49451 8.81025 6.37451 8.75775C6.02951 8.60775 5.81201 8.27024 5.81201 7.90274V2.00024C5.81201 1.69274 6.06701 1.43774 6.37451 1.43774H11.6245C11.932 1.43774 12.187 1.69274 12.187 2.00024V7.89523C12.187 8.27023 11.9695 8.60774 11.6245 8.75024C11.287 8.90024 10.8895 8.83276 10.612 8.57776L8.99951 7.10023L7.38699 8.58527C7.20699 8.75027 6.98201 8.83273 6.74951 8.83273ZM8.99951 5.90776C9.22451 5.90776 9.45699 5.99023 9.63699 6.15523L11.062 7.46773V2.56274H6.93701V7.46773L8.36203 6.15523C8.54203 5.99023 8.77451 5.90776 8.99951 5.90776Z" fill="#A0A6B1"/>
<path d="M13.1255 11.5627H9.93799C9.63049 11.5627 9.37549 11.3077 9.37549 11.0002C9.37549 10.6927 9.63049 10.4377 9.93799 10.4377H13.1255C13.433 10.4377 13.688 10.6927 13.688 11.0002C13.688 11.3077 13.433 11.5627 13.1255 11.5627Z" fill="#A0A6B1"/>
<path d="M13.125 14.5625H6.75C6.4425 14.5625 6.1875 14.3075 6.1875 14C6.1875 13.6925 6.4425 13.4375 6.75 13.4375H13.125C13.4325 13.4375 13.6875 13.6925 13.6875 14C13.6875 14.3075 13.4325 14.5625 13.125 14.5625Z" fill="#A0A6B1"/>
</svg>
