<svg width="41" height="40" viewBox="0 0 41 40" fill="none" xmlns="http://www.w3.org/2000/svg">
<path d="M3.4895 5V30C3.4895 32.7416 5.74789 35 8.4895 35H31.8228C34.5645 35 36.8228 32.7416 36.8228 30V11.6667H33.4895V30C33.4895 30.9417 32.7646 31.6667 31.8228 31.6667C30.8811 31.6667 30.1562 30.9417 30.1562 30V5H3.4895ZM6.82284 8.33333H26.8228V30C26.8228 30.6472 27.2878 31.0966 27.5162 31.6667H8.4895C7.54779 31.6667 6.82284 30.9417 6.82284 30V8.33333ZM10.1562 11.6667V16.6667H23.4895V11.6667H10.1562ZM10.1562 20V23.3333H23.4895V20H10.1562ZM10.1562 26.6667V30H23.4895V26.6667H10.1562Z" fill="#48CCE9"/>
</svg>
