<svg width="20" height="21" viewBox="0 0 20 21" fill="none" xmlns="http://www.w3.org/2000/svg">
<path d="M6.11084 17.5636H13.8892C15.4053 17.5636 16.1597 16.7946 16.1597 15.2711V8.62073C16.1597 7.6759 16.0498 7.26575 15.4639 6.66516L11.4282 2.55627C10.8716 1.98499 10.4102 1.86047 9.58984 1.86047H6.11084C4.60205 1.86047 3.84033 2.63684 3.84033 4.16028V15.2711C3.84033 16.8019 4.59473 17.5636 6.11084 17.5636ZM6.16211 16.3844C5.40771 16.3844 5.01953 15.9816 5.01953 15.2491V4.18225C5.01953 3.45715 5.40771 3.03967 6.16943 3.03967H9.42871V7.29504C9.42871 8.2179 9.89014 8.672 10.8057 8.672H14.9805V15.2491C14.9805 15.9816 14.5923 16.3844 13.8306 16.3844H6.16211ZM10.9375 7.56604C10.6445 7.56604 10.5347 7.44885 10.5347 7.15588V3.26672L14.7534 7.56604H10.9375ZM12.6953 10.6935H7.13623C6.87256 10.6935 6.6748 10.8912 6.6748 11.1403C6.6748 11.3966 6.87256 11.5944 7.13623 11.5944H12.6953C12.9517 11.5944 13.1421 11.3966 13.1421 11.1403C13.1421 10.8912 12.9517 10.6935 12.6953 10.6935ZM12.6953 13.2496H7.13623C6.87256 13.2496 6.6748 13.4547 6.6748 13.7111C6.6748 13.9601 6.87256 14.1505 7.13623 14.1505H12.6953C12.9517 14.1505 13.1421 13.9601 13.1421 13.7111C13.1421 13.4547 12.9517 13.2496 12.6953 13.2496Z" fill="#A0A6B1"/>
</svg>
