<svg width="20" height="21" viewBox="0 0 20 21" fill="none" xmlns="http://www.w3.org/2000/svg">
<path d="M12.1899 12.9639V14.1431H15.6104C17.8589 14.1431 19.2065 12.7881 19.2065 11.0157C19.2065 9.53619 18.3203 8.32037 16.8921 7.74176C16.9067 4.47516 14.5557 2.11676 11.5601 2.11676C9.5752 2.11676 8.16162 3.17877 7.28271 4.46051C5.62012 4.01373 3.51807 5.3028 3.48145 7.3609C1.82617 7.61725 0.793457 8.97223 0.793457 10.7007C0.793457 12.605 2.22168 14.1431 4.62402 14.1431H7.87598V12.9639H4.6167C2.88086 12.9639 1.97266 11.9605 1.97266 10.7007C1.97266 9.30182 2.85889 8.26178 4.41162 8.26178C4.51416 8.26178 4.55078 8.20319 4.55078 8.10797C4.55078 5.85944 6.16943 5.23688 7.67822 5.67633C7.76611 5.70563 7.81738 5.69098 7.86133 5.61041C8.57178 4.34332 9.66309 3.29596 11.5601 3.29596C13.9624 3.29596 15.625 5.20026 15.7495 7.38287C15.7715 7.71246 15.7495 8.10797 15.7202 8.45221C15.7129 8.54742 15.7495 8.60602 15.8374 8.62067C17.1704 8.91364 18.0273 9.7486 18.0273 11.0157C18.0273 12.1436 17.207 12.9639 15.603 12.9639H12.1899ZM10.0366 17.8931C10.3516 17.8931 10.6152 17.6368 10.6152 17.3292V10.459L10.5713 9.10406L11.062 9.62408L12.1753 10.73C12.2852 10.8399 12.4316 10.9058 12.5708 10.9058C12.8711 10.9058 13.1055 10.6934 13.1055 10.3931C13.1055 10.2393 13.0469 10.1075 12.9297 10.0049L10.4541 7.69049C10.3003 7.55133 10.1831 7.50006 10.0366 7.50006C9.88281 7.50006 9.76562 7.55133 9.61182 7.69049L7.13623 10.0049C7.01904 10.1075 6.96045 10.2393 6.96045 10.3931C6.96045 10.6934 7.18018 10.9058 7.48779 10.9058C7.62695 10.9058 7.78076 10.8399 7.89062 10.73L9.00391 9.62408L9.49463 9.10406L9.45068 10.459V17.3292C9.45068 17.6368 9.72168 17.8931 10.0366 17.8931Z" fill="#61C091"/>
</svg>
