<svg width="30" height="30" viewBox="0 0 30 30" fill="none" xmlns="http://www.w3.org/2000/svg">
<path d="M22.6379 5.75203H24.3873C24.553 5.75203 24.6873 5.6179 24.6873 5.45195C24.6873 5.28622 24.5532 5.15187 24.3873 5.15187L21.8443 5.15208C19.9016 3.79777 17.5428 3.00049 15.0002 3.00049C8.38376 3.00049 3.00049 8.38376 3.00049 15.0002C3.00049 18.6441 4.63524 21.9113 7.20741 24.1141H5.42347C5.25773 24.1141 5.12339 24.2482 5.12339 24.4142C5.12339 24.5799 5.25752 24.7143 5.42347 24.7143H7.96719C9.94511 26.15 12.3746 27 15.0004 27C21.6169 27 27.0001 21.6167 27.0001 15.0003C27.0001 11.2828 25.3005 7.95472 22.6379 5.75192L22.6379 5.75203ZM15.0004 26.4001C12.5142 26.4001 10.2132 25.5978 8.33731 24.2416V21.8C8.33731 21.6343 8.20318 21.4999 8.03723 21.4999C7.8715 21.4999 7.73715 21.6341 7.73715 21.8V23.78C5.21202 21.6874 3.6003 18.5287 3.6003 15.0004C3.6003 8.71446 8.71417 3.60065 15 3.60065C17.4028 3.60065 19.6328 4.34978 21.4729 5.624V8.06626C21.4729 8.232 21.6071 8.36634 21.773 8.36634C21.9387 8.36634 22.0731 8.23221 22.0731 8.06626V6.07013C24.7062 8.16022 26.3997 11.3853 26.3997 15.0003C26.3997 21.2862 21.2857 26.4 15 26.4L15.0004 26.4001Z" fill="#4D85F0" stroke="#4D85F0" stroke-width="0.5"/>
<path d="M19.9856 12.7144H17.2697V9.9899C17.2697 9.82416 17.1355 9.68982 16.9696 9.68982H13.0322C12.8664 9.68982 12.7321 9.82395 12.7321 9.9899V12.7144H10.0161C9.85041 12.7144 9.71606 12.8486 9.71606 13.0145V16.9628C9.71606 17.1285 9.8502 17.2629 10.0161 17.2629H12.7321V19.9872C12.7321 20.1529 12.8662 20.2873 13.0322 20.2873H16.9696C17.1353 20.2873 17.2697 20.1531 17.2697 19.9872V17.2629H19.9856C20.1514 17.2629 20.2857 17.1287 20.2857 16.9628V13.0143C20.2857 12.8486 20.1514 12.7144 19.9856 12.7144V12.7144ZM19.6855 16.6627H16.9696C16.8038 16.6627 16.6695 16.7968 16.6695 16.9628V19.6871H13.332V16.9628C13.332 16.7971 13.1979 16.6627 13.032 16.6627H10.316L10.3162 13.3144H13.0322C13.1979 13.3144 13.3322 13.1802 13.3322 13.0143V10.2898H16.6697V13.0143C16.6697 13.18 16.8038 13.3144 16.9698 13.3144H19.6857L19.6855 16.6627Z" fill="#4D85F0" stroke="#4D85F0" stroke-width="0.5"/>
</svg>
