<svg width="24" height="25" viewBox="0 0 24 25" fill="none" xmlns="http://www.w3.org/2000/svg">
<g clip-path="url(#clip0_399_2694)">
<path d="M12 2.63086C11.172 2.63086 10.5 3.30286 10.5 4.13086V4.82617C7.91318 5.49295 6 7.83566 6 10.6309V16.6309L4.46484 17.7871H4.46289C4.32099 17.8775 4.20418 18.0022 4.12327 18.1496C4.04236 18.2971 3.99996 18.4626 4 18.6309C4 18.8961 4.10536 19.1504 4.29289 19.338C4.48043 19.5255 4.73478 19.6309 5 19.6309H12H19C19.2652 19.6309 19.5196 19.5255 19.7071 19.338C19.8946 19.1504 20 18.8961 20 18.6309C20 18.4626 19.9576 18.2971 19.8767 18.1496C19.7958 18.0022 19.679 17.8775 19.5371 17.7871L18 16.6309V10.6309C18 7.83566 16.0868 5.49295 13.5 4.82617V4.13086C13.5 3.30286 12.828 2.63086 12 2.63086ZM10 20.6309C10 21.7309 10.9 22.6309 12 22.6309C13.1 22.6309 14 21.7309 14 20.6309H10Z" fill="white"/>
<circle cx="16" cy="4.63086" r="4" fill="#DF5D58" stroke="#4D85F0" stroke-width="0.5"/>
</g>
<defs>
<clipPath id="clip0_399_2694">
<rect width="24" height="24" fill="white" transform="translate(0 0.630859)"/>
</clipPath>
</defs>
</svg>
