<svg width="30" height="30" viewBox="0 0 30 30" fill="none" xmlns="http://www.w3.org/2000/svg">
<path d="M25.8626 7.09184H22.1355V5.2101C22.1355 5.13417 22.0739 5.07263 21.998 5.07263C21.9222 5.07263 21.8605 5.13417 21.8605 5.2101V7.09201L7.99951 7.09184V5.21011C7.99951 5.13417 7.93797 5.07264 7.86204 5.07264C7.78611 5.07264 7.72457 5.13417 7.72457 5.21011V7.09201L3.99855 7.09185C3.92262 7.09185 3.86108 7.15338 3.86108 7.22932V24.8773C3.86108 24.9533 3.92262 25.0148 3.99855 25.0148H25.8626C25.9384 25.0148 26.0001 24.9533 26.0001 24.8773V7.22932C26.0003 7.15338 25.9387 7.09185 25.8628 7.09185L25.8626 7.09184ZM4.13597 7.36678H7.72448V9.77549C7.72448 9.85143 7.78602 9.91296 7.86195 9.91296C7.93788 9.91296 7.99942 9.85143 7.99942 9.77549V7.36678H21.8604V9.77549C21.8604 9.85143 21.9221 9.91296 21.9979 9.91296C22.0738 9.91296 22.1354 9.85143 22.1354 9.77549L22.1355 7.36678H25.7252V11.569H4.136L4.13597 7.36678ZM25.7252 24.7396H4.13597V11.8438H25.7248V24.7396H25.7252Z" fill="#4D85F0" stroke="#4D85F0" stroke-width="0.6"/>
<path d="M14.9306 23.1942C17.7062 23.1942 19.9644 20.9361 19.9644 18.1604C19.9644 15.3849 17.7063 13.127 14.9306 13.127C12.1549 13.127 9.89673 15.385 9.89673 18.1604C9.89673 20.9362 12.1549 23.1942 14.9306 23.1942ZM14.9306 13.4018C17.5547 13.4018 19.6896 15.5365 19.6896 18.1604C19.6896 20.7845 17.5547 22.9194 14.9306 22.9194C12.3065 22.9194 10.1716 20.7845 10.1716 18.1604C10.1716 15.5363 12.3063 13.4018 14.9306 13.4018Z" fill="#4D85F0" stroke="#4D85F0" stroke-width="0.6"/>
<path d="M12.1247 19.0507H13.95V20.8754C13.95 20.9444 14.006 21.0004 14.075 21.0004H15.9245C15.9936 21.0004 16.0495 20.9444 16.0495 20.8754V19.0507H17.8748C17.9438 19.0507 17.9998 18.9947 17.9998 18.9257V17.0755C17.9998 17.0065 17.9438 16.9505 17.8748 16.9505H16.0495V15.1253C16.0495 15.0563 15.9935 15.0004 15.9245 15.0004H14.075C14.006 15.0004 13.95 15.0563 13.95 15.1253V16.9505H12.1247C12.0557 16.9505 11.9998 17.0065 11.9998 17.0755V18.9257C11.9998 18.9946 12.0557 19.0507 12.1247 19.0507ZM12.2496 17.2003H14.075C14.144 17.2003 14.1999 17.1444 14.1999 17.0753V15.2501H15.7996V17.0753C15.7996 17.1444 15.8555 17.2003 15.9246 17.2003H17.7499V18.8006H15.9246C15.8555 18.8006 15.7996 18.8565 15.7996 18.9256V20.7503H14.1999V18.9256C14.1999 18.8565 14.144 18.8006 14.075 18.8006H12.2496V17.2003Z" fill="#4D85F0" stroke="#4D85F0" stroke-width="0.5"/>
</svg>
