<svg width="41" height="40" viewBox="0 0 41 40" fill="none" xmlns="http://www.w3.org/2000/svg">
<path d="M18.2868 3.35304C17.8153 3.37672 17.3397 3.42513 16.861 3.49952C9.79797 4.59948 5.10739 11.1931 5.72165 18.2326C5.98326 21.2504 7.15725 23.0477 8.19236 24.5412C9.48602 26.41 10.6565 27.9402 10.6565 32.0672V36.6668H25.6565V31.6668H28.9899C30.8117 31.6668 32.3232 30.1553 32.3232 28.3335V23.3693L34.3675 22.5067C35.3018 22.1133 35.734 20.6924 35.1976 19.8472L32.2353 15.1987V15.1955C31.4711 8.21937 25.3587 2.99777 18.2868 3.35304ZM17.3232 6.8003V15.4526C16.8173 15.7447 16.3971 16.1646 16.1046 16.6702C15.8121 17.1758 15.6576 17.7494 15.6565 18.3335C15.6565 19.2176 16.0077 20.0654 16.6329 20.6905C17.258 21.3157 18.1058 21.6668 18.9899 21.6668C19.2812 21.6667 19.5712 21.6284 19.8525 21.5529L22.3297 24.0301C22.3263 24.0756 22.3241 24.1212 22.3232 24.1668C22.3232 24.8299 22.5866 25.4658 23.0554 25.9346C23.5243 26.4035 24.1602 26.6668 24.8232 26.6668C25.4863 26.6668 26.1221 26.4035 26.591 25.9346C27.0598 25.4658 27.3232 24.8299 27.3232 24.1668C27.3232 23.5038 27.0598 22.8679 26.591 22.3991C26.1221 21.9302 25.4863 21.6668 24.8232 21.6668C24.7776 21.6678 24.732 21.6699 24.6865 21.6734L22.206 19.1929C22.2824 18.9128 22.3217 18.6238 22.3232 18.3335C22.3228 17.7488 22.1685 17.1746 21.876 16.6683C21.5834 16.1621 21.1629 15.7417 20.6565 15.4494V6.8003C25.0249 7.51572 28.4256 11.0333 28.9215 15.5601L29.0062 16.3316L29.4228 16.9891L31.4248 20.1304L28.9899 21.159V22.2625V28.3335H22.3232V33.3335H13.9899V32.0672C13.9899 27.2143 12.2262 24.5113 10.9332 22.6434C9.89835 21.1502 9.24702 20.3116 9.04197 17.9461V17.9429C8.57114 12.5471 12.0657 7.64814 17.3232 6.8003Z" fill="#D55592"/>
</svg>
