<svg width="20" height="21" viewBox="0 0 20 21" fill="none" xmlns="http://www.w3.org/2000/svg">
<path d="M9.9998 19.4584C9.4998 19.4584 9.00814 19.3418 8.60814 19.1168L4.66647 16.8418C3.03314 15.7418 2.9248 15.5418 2.9248 13.8168V9.68342C2.9248 7.95842 3.03314 7.75842 4.63314 6.68342L8.61647 4.38342C9.40814 3.92509 10.5998 3.92509 11.3915 4.38342L15.3331 6.65842C16.9665 7.75842 17.0748 7.95842 17.0748 9.68342V13.8168C17.0748 15.5418 16.9665 15.7418 15.3665 16.8168L11.3831 19.1168C10.9915 19.3501 10.4915 19.4584 9.9998 19.4584ZM9.9998 5.29176C9.71647 5.29176 9.43314 5.35009 9.23314 5.46676L5.29147 7.74176C4.1748 8.50009 4.1748 8.50009 4.1748 9.68342V13.8168C4.1748 15.0001 4.1748 15.0001 5.33314 15.7834L9.24147 18.0334C9.64147 18.2668 10.3665 18.2668 10.7665 18.0334L14.7081 15.7584C15.8248 15.0001 15.8248 15.0001 15.8248 13.8168V9.68342C15.8248 8.50009 15.8248 8.50009 14.6665 7.71676L10.7581 5.46676C10.5665 5.35009 10.2831 5.29176 9.9998 5.29176Z" fill="#A0A6B1"/>
<path d="M14.5832 7.48342C14.2415 7.48342 13.9582 7.20008 13.9582 6.85842V4.66675C13.9582 3.35008 13.3998 2.79175 12.0832 2.79175H7.9165C6.59984 2.79175 6.0415 3.35008 6.0415 4.66675V6.80008C6.0415 7.14175 5.75817 7.42508 5.4165 7.42508C5.07484 7.42508 4.7915 7.15008 4.7915 6.80008V4.66675C4.7915 2.65008 5.89984 1.54175 7.9165 1.54175H12.0832C14.0998 1.54175 15.2082 2.65008 15.2082 4.66675V6.85842C15.2082 7.20008 14.9248 7.48342 14.5832 7.48342Z" fill="#A0A6B1"/>
<path d="M11.3584 15.1917C11.1834 15.1917 11 15.1584 10.8167 15.0834L10 14.7667L9.18337 15.0917C8.7417 15.2667 8.2917 15.225 7.95837 14.9834C7.62504 14.7417 7.45004 14.325 7.47504 13.85L7.52503 12.975L6.9667 12.3C6.6667 11.925 6.5667 11.4917 6.70004 11.0917C6.82504 10.7 7.1667 10.4 7.62503 10.2834L8.47504 10.0667L8.95004 9.32504C9.45837 8.52504 10.55 8.52504 11.0584 9.32504L11.5334 10.0667L12.3834 10.2834C12.8417 10.4 13.1834 10.7 13.3084 11.0917C13.4334 11.4834 13.3334 11.925 13.0334 12.2917L12.475 12.9667L12.525 13.8417C12.55 14.3167 12.375 14.725 12.0417 14.975C11.8417 15.1167 11.6084 15.1917 11.3584 15.1917ZM7.93337 11.5L8.4917 12.175C8.68337 12.4 8.7917 12.7584 8.77504 13.05L8.72504 13.925L9.5417 13.6C9.8167 13.4917 10.1834 13.4917 10.4584 13.6L11.275 13.925L11.225 13.05C11.2084 12.7584 11.3167 12.4084 11.5084 12.175L12.0667 11.5L11.2167 11.2834C10.9334 11.2084 10.6334 10.9917 10.475 10.75L10.0084 10.0167L9.53337 10.75C9.37504 11 9.07504 11.2167 8.7917 11.2917L7.93337 11.5Z" fill="#A0A6B1"/>
</svg>
