<svg width="20" height="21" viewBox="0 0 20 21" fill="none" xmlns="http://www.w3.org/2000/svg">
<path d="M9.52842 2.00012C7.71711 2.00012 6.24826 3.59138 6.24826 5.55363C6.24826 7.96149 8.21636 8.69635 8.21636 9.81784V10.1093C8.21636 11.2301 7.69921 11.3581 6.88507 11.528C6.29869 11.6503 1.97463 12.6409 1.82773 12.6745C1.80579 12.6788 1.784 12.6839 1.76238 12.6898C1.76224 12.6898 1.74188 12.694 1.74188 12.694C1.52985 12.7523 1.34181 12.8855 1.20746 13.0725C1.07311 13.2595 1.00011 13.4897 1 13.7267V14.7928C1 15.5781 1.58715 16.2142 2.31206 16.2142H9.52842H16.7448C17.4697 16.2142 18.0568 15.5781 18.0568 14.7928V13.7267C18.0567 13.4897 17.9837 13.2595 17.8494 13.0725C17.715 12.8855 17.527 12.7523 17.315 12.694C17.315 12.694 17.3086 12.6926 17.3086 12.6926C17.2857 12.6866 17.2626 12.6815 17.2394 12.6773C17.1096 12.6476 12.7593 11.6505 12.1718 11.528C11.3576 11.3581 10.8405 11.2301 10.8405 10.1093V9.81784C10.8405 8.69635 12.8086 7.96149 12.8086 5.55363C12.8086 3.59138 11.3397 2.00012 9.52842 2.00012ZM2.31206 17.5786C2.22513 17.5773 2.13882 17.5947 2.05815 17.6298C1.97748 17.665 1.90406 17.7171 1.84215 17.7832C1.78024 17.8493 1.73108 17.9281 1.69752 18.015C1.66397 18.1019 1.64669 18.1952 1.64669 18.2894C1.64669 18.3835 1.66397 18.4768 1.69752 18.5637C1.73108 18.6506 1.78024 18.7294 1.84215 18.7955C1.90406 18.8616 1.97748 18.9137 2.05815 18.9489C2.13882 18.984 2.22513 19.0014 2.31206 19.0001H16.7448C16.8317 19.0014 16.918 18.984 16.9987 18.9489C17.0794 18.9137 17.1528 18.8616 17.2147 18.7955C17.2766 18.7294 17.3258 18.6506 17.3593 18.5637C17.3929 18.4768 17.4102 18.3835 17.4102 18.2894C17.4102 18.1952 17.3929 18.1019 17.3593 18.015C17.3258 17.9281 17.2766 17.8493 17.2147 17.7832C17.1528 17.7171 17.0794 17.665 16.9987 17.6298C16.918 17.5947 16.8317 17.5773 16.7448 17.5786H2.31206Z" fill="#A0A6B1"/>
</svg>
